<svg viewBox="0 0 334.82 227.54" xmlns="http://www.w3.org/2000/svg"><g fill="#282826"><path d="M142.64 53.98l-.64 1.93c-2.22 6.64-4.82 14.25-7.58 22.32-7.46 21.82-15.78 46.15-21.53 65.7-5.47-19.03-14.03-44.01-21.11-64.69-2.91-8.5-5.66-16.54-7.92-23.32l-.65-1.94H47.45v119.59h24.24l-.01-2.84c-.02-6.34-.01-14.12 0-22.62.02-18.82.05-40.91-.19-58.7 6.21 19.26 14.65 43.87 21.29 63.23 2.44 7.11 4.67 13.61 6.5 19l.65 1.92h25.98l.65-1.92c1.79-5.27 3.97-11.64 6.37-18.62 6.69-19.5 15.19-44.29 21.42-63.61-.24 17.75-.21 39.68-.19 58.38.01 8.59.02 16.48 0 22.93l-.01 2.84h24.24V53.98zM272.07 53.98l-.64 1.96c-1.41 4.33-2.97 9.09-4.63 14.15-7.53 22.93-16.64 50.68-22.46 71.62-5.83-20.78-12.81-41.96-19.59-62.53-2.66-8.08-5.18-15.71-7.6-23.23l-.63-1.97h-25.66l39.3 119.59h28.43l39.14-119.59z"/></g></svg>